<mxfile host="65bd71144e">
    <diagram id="6Lu5CoHXRODCUZFfWQfF" name="Tela - Login">
        <mxGraphModel dx="1027" dy="639" grid="1" gridSize="10" guides="1" tooltips="1" connect="1" arrows="1" fold="1" page="0" pageScale="1" pageWidth="850" pageHeight="1100" math="0" shadow="0">
            <root>
                <mxCell id="0"/>
                <mxCell id="1" parent="0"/>
                <mxCell id="2" value="" style="rounded=1;whiteSpace=wrap;html=1;arcSize=3;" parent="1" vertex="1">
                    <mxGeometry x="275" y="220" width="300" height="200" as="geometry"/>
                </mxCell>
                <mxCell id="3" value="ML Hub" style="text;html=1;strokeColor=none;fillColor=none;align=center;verticalAlign=middle;whiteSpace=wrap;rounded=0;fontSize=16;fontStyle=1" parent="1" vertex="1">
                    <mxGeometry x="373" y="220" width="105" height="30" as="geometry"/>
                </mxCell>
                <mxCell id="4" value="" style="rounded=1;whiteSpace=wrap;html=1;" parent="1" vertex="1">
                    <mxGeometry x="333" y="280" width="185" height="30" as="geometry"/>
                </mxCell>
                <mxCell id="5" value="" style="rounded=1;whiteSpace=wrap;html=1;" parent="1" vertex="1">
                    <mxGeometry x="333" y="338" width="185" height="30" as="geometry"/>
                </mxCell>
                <mxCell id="6" value="Usuário" style="text;html=1;strokeColor=none;fillColor=none;align=center;verticalAlign=middle;whiteSpace=wrap;rounded=0;fontSize=10;fontStyle=1" parent="1" vertex="1">
                    <mxGeometry x="373" y="260" width="105" height="20" as="geometry"/>
                </mxCell>
                <mxCell id="7" value="Senha" style="text;html=1;strokeColor=none;fillColor=none;align=center;verticalAlign=middle;whiteSpace=wrap;rounded=0;fontSize=10;fontStyle=1" parent="1" vertex="1">
                    <mxGeometry x="373" y="318" width="105" height="20" as="geometry"/>
                </mxCell>
                <mxCell id="8" value="Entrar" style="rounded=1;whiteSpace=wrap;html=1;" parent="1" vertex="1">
                    <mxGeometry x="390" y="380" width="71" height="30" as="geometry"/>
                </mxCell>
            </root>
        </mxGraphModel>
    </diagram>
    <diagram id="ytE5fx0ZoQ8EKUnvBzWQ" name="Tela - Administrador">
        <mxGraphModel dx="1384" dy="410" grid="1" gridSize="10" guides="1" tooltips="1" connect="1" arrows="1" fold="1" page="0" pageScale="1" pageWidth="850" pageHeight="1100" math="0" shadow="0">
            <root>
                <mxCell id="0"/>
                <mxCell id="1" parent="0"/>
                <mxCell id="9zySPGnfiMd_SYGHh6d--1" value="" style="rounded=1;whiteSpace=wrap;html=1;arcSize=3;" parent="1" vertex="1">
                    <mxGeometry x="-160" y="160" width="400" height="300" as="geometry"/>
                </mxCell>
                <mxCell id="9zySPGnfiMd_SYGHh6d--2" value="" style="rounded=0;whiteSpace=wrap;html=1;fontSize=10;" parent="1" vertex="1">
                    <mxGeometry x="-160" y="180" width="400" height="280" as="geometry"/>
                </mxCell>
                <mxCell id="rpPuDtg6wSzzMMEJrriW-1" value="Dashboard" style="rounded=1;whiteSpace=wrap;html=1;fontSize=10;gradientColor=default;" parent="1" vertex="1">
                    <mxGeometry x="-160" y="160" width="85" height="20" as="geometry"/>
                </mxCell>
                <mxCell id="rpPuDtg6wSzzMMEJrriW-2" value="Cadastro" style="rounded=1;whiteSpace=wrap;html=1;fontSize=10;" parent="1" vertex="1">
                    <mxGeometry x="-75" y="160" width="85" height="20" as="geometry"/>
                </mxCell>
                <mxCell id="rpPuDtg6wSzzMMEJrriW-3" value="IAM" style="rounded=1;whiteSpace=wrap;html=1;fontSize=10;" parent="1" vertex="1">
                    <mxGeometry x="10" y="160" width="85" height="20" as="geometry"/>
                </mxCell>
                <mxCell id="BgNDiZXAqOEsdr0Qe1a8-6" value="Authentication Gateway" style="text;html=1;strokeColor=none;fillColor=none;align=center;verticalAlign=middle;whiteSpace=wrap;rounded=0;fontSize=10;" parent="1" vertex="1">
                    <mxGeometry x="-123.25" y="285" width="100" height="30" as="geometry"/>
                </mxCell>
                <mxCell id="BgNDiZXAqOEsdr0Qe1a8-7" value="User Control" style="text;html=1;strokeColor=none;fillColor=none;align=center;verticalAlign=middle;whiteSpace=wrap;rounded=0;fontSize=10;" parent="1" vertex="1">
                    <mxGeometry x="-123.25" y="325" width="100" height="30" as="geometry"/>
                </mxCell>
                <mxCell id="BgNDiZXAqOEsdr0Qe1a8-8" value="Artifacts" style="text;html=1;strokeColor=none;fillColor=none;align=center;verticalAlign=middle;whiteSpace=wrap;rounded=0;fontSize=10;" parent="1" vertex="1">
                    <mxGeometry x="-123.25" y="365" width="100" height="30" as="geometry"/>
                </mxCell>
                <mxCell id="BgNDiZXAqOEsdr0Qe1a8-9" value="Training" style="text;html=1;strokeColor=none;fillColor=none;align=center;verticalAlign=middle;whiteSpace=wrap;rounded=0;fontSize=10;" parent="1" vertex="1">
                    <mxGeometry x="-123.25" y="405" width="100" height="30" as="geometry"/>
                </mxCell>
                <mxCell id="BgNDiZXAqOEsdr0Qe1a8-10" value="Total de Requisições" style="text;html=1;strokeColor=none;fillColor=none;align=center;verticalAlign=middle;whiteSpace=wrap;rounded=0;fontSize=10;" parent="1" vertex="1">
                    <mxGeometry x="-10.25" y="205" width="100" height="30" as="geometry"/>
                </mxCell>
                <mxCell id="BgNDiZXAqOEsdr0Qe1a8-11" value="Requisições/s" style="text;html=1;strokeColor=none;fillColor=none;align=center;verticalAlign=middle;whiteSpace=wrap;rounded=0;fontSize=10;" parent="1" vertex="1">
                    <mxGeometry x="103.25" y="205" width="100" height="30" as="geometry"/>
                </mxCell>
                <mxCell id="BgNDiZXAqOEsdr0Qe1a8-13" value="API Gateway" style="text;html=1;strokeColor=none;fillColor=none;align=center;verticalAlign=middle;whiteSpace=wrap;rounded=0;fontSize=10;" parent="1" vertex="1">
                    <mxGeometry x="-123" y="245" width="100" height="30" as="geometry"/>
                </mxCell>
                <mxCell id="BgNDiZXAqOEsdr0Qe1a8-14" value="200" style="text;html=1;strokeColor=none;fillColor=none;align=center;verticalAlign=middle;whiteSpace=wrap;rounded=0;fontSize=10;" parent="1" vertex="1">
                    <mxGeometry x="9.75" y="245" width="60" height="30" as="geometry"/>
                </mxCell>
                <mxCell id="BgNDiZXAqOEsdr0Qe1a8-15" value="80" style="text;html=1;strokeColor=none;fillColor=none;align=center;verticalAlign=middle;whiteSpace=wrap;rounded=0;fontSize=10;" parent="1" vertex="1">
                    <mxGeometry x="9.75" y="285" width="60" height="30" as="geometry"/>
                </mxCell>
                <mxCell id="BgNDiZXAqOEsdr0Qe1a8-16" value="40" style="text;html=1;strokeColor=none;fillColor=none;align=center;verticalAlign=middle;whiteSpace=wrap;rounded=0;fontSize=10;" parent="1" vertex="1">
                    <mxGeometry x="9.75" y="325" width="60" height="30" as="geometry"/>
                </mxCell>
                <mxCell id="BgNDiZXAqOEsdr0Qe1a8-17" value="35" style="text;html=1;strokeColor=none;fillColor=none;align=center;verticalAlign=middle;whiteSpace=wrap;rounded=0;fontSize=10;" parent="1" vertex="1">
                    <mxGeometry x="9.75" y="365" width="60" height="30" as="geometry"/>
                </mxCell>
                <mxCell id="BgNDiZXAqOEsdr0Qe1a8-18" value="20" style="text;html=1;strokeColor=none;fillColor=none;align=center;verticalAlign=middle;whiteSpace=wrap;rounded=0;fontSize=10;" parent="1" vertex="1">
                    <mxGeometry x="9.75" y="405" width="60" height="30" as="geometry"/>
                </mxCell>
                <mxCell id="BgNDiZXAqOEsdr0Qe1a8-19" value="10/s" style="text;html=1;strokeColor=none;fillColor=none;align=center;verticalAlign=middle;whiteSpace=wrap;rounded=0;fontSize=10;" parent="1" vertex="1">
                    <mxGeometry x="123.25" y="245" width="60" height="30" as="geometry"/>
                </mxCell>
                <mxCell id="BgNDiZXAqOEsdr0Qe1a8-20" value="10/s" style="text;html=1;strokeColor=none;fillColor=none;align=center;verticalAlign=middle;whiteSpace=wrap;rounded=0;fontSize=10;" parent="1" vertex="1">
                    <mxGeometry x="123.25" y="285" width="60" height="30" as="geometry"/>
                </mxCell>
                <mxCell id="BgNDiZXAqOEsdr0Qe1a8-21" value="10/s" style="text;html=1;strokeColor=none;fillColor=none;align=center;verticalAlign=middle;whiteSpace=wrap;rounded=0;fontSize=10;" parent="1" vertex="1">
                    <mxGeometry x="123.25" y="325" width="60" height="30" as="geometry"/>
                </mxCell>
                <mxCell id="BgNDiZXAqOEsdr0Qe1a8-22" value="10/s" style="text;html=1;strokeColor=none;fillColor=none;align=center;verticalAlign=middle;whiteSpace=wrap;rounded=0;fontSize=10;" parent="1" vertex="1">
                    <mxGeometry x="123.25" y="365" width="60" height="30" as="geometry"/>
                </mxCell>
                <mxCell id="BgNDiZXAqOEsdr0Qe1a8-23" value="10/s" style="text;html=1;strokeColor=none;fillColor=none;align=center;verticalAlign=middle;whiteSpace=wrap;rounded=0;fontSize=10;" parent="1" vertex="1">
                    <mxGeometry x="123.25" y="405" width="60" height="30" as="geometry"/>
                </mxCell>
                <mxCell id="BgNDiZXAqOEsdr0Qe1a8-24" value="Serviço" style="text;html=1;strokeColor=none;fillColor=none;align=center;verticalAlign=middle;whiteSpace=wrap;rounded=0;fontSize=10;" parent="1" vertex="1">
                    <mxGeometry x="-123" y="205" width="100" height="30" as="geometry"/>
                </mxCell>
                <mxCell id="BgNDiZXAqOEsdr0Qe1a8-25" value="" style="rounded=1;whiteSpace=wrap;html=1;arcSize=3;" parent="1" vertex="1">
                    <mxGeometry x="280" y="160" width="400" height="300" as="geometry"/>
                </mxCell>
                <mxCell id="BgNDiZXAqOEsdr0Qe1a8-26" value="" style="rounded=0;whiteSpace=wrap;html=1;fontSize=10;" parent="1" vertex="1">
                    <mxGeometry x="280" y="180" width="400" height="280" as="geometry"/>
                </mxCell>
                <mxCell id="BgNDiZXAqOEsdr0Qe1a8-27" value="Dashboard" style="rounded=1;whiteSpace=wrap;html=1;fontSize=10;" parent="1" vertex="1">
                    <mxGeometry x="280" y="160" width="85" height="20" as="geometry"/>
                </mxCell>
                <mxCell id="BgNDiZXAqOEsdr0Qe1a8-28" value="Cadastro" style="rounded=1;whiteSpace=wrap;html=1;fontSize=10;gradientColor=default;" parent="1" vertex="1">
                    <mxGeometry x="365" y="160" width="85" height="20" as="geometry"/>
                </mxCell>
                <mxCell id="BgNDiZXAqOEsdr0Qe1a8-29" value="IAM" style="rounded=1;whiteSpace=wrap;html=1;fontSize=10;" parent="1" vertex="1">
                    <mxGeometry x="450" y="160" width="85" height="20" as="geometry"/>
                </mxCell>
                <mxCell id="I1IDcSsDDkqj55VAcggX-1" value="" style="rounded=1;whiteSpace=wrap;html=1;" parent="1" vertex="1">
                    <mxGeometry x="300" y="215" width="160" height="30" as="geometry"/>
                </mxCell>
                <mxCell id="I1IDcSsDDkqj55VAcggX-2" value="" style="rounded=1;whiteSpace=wrap;html=1;" parent="1" vertex="1">
                    <mxGeometry x="500" y="215" width="160" height="30" as="geometry"/>
                </mxCell>
                <mxCell id="I1IDcSsDDkqj55VAcggX-3" value="Usuário" style="text;html=1;strokeColor=none;fillColor=none;align=center;verticalAlign=middle;whiteSpace=wrap;rounded=0;fontSize=10;fontStyle=1" parent="1" vertex="1">
                    <mxGeometry x="327.5" y="195" width="105" height="20" as="geometry"/>
                </mxCell>
                <mxCell id="I1IDcSsDDkqj55VAcggX-4" value="Senha" style="text;html=1;strokeColor=none;fillColor=none;align=center;verticalAlign=middle;whiteSpace=wrap;rounded=0;fontSize=10;fontStyle=1" parent="1" vertex="1">
                    <mxGeometry x="527.5" y="195" width="105" height="20" as="geometry"/>
                </mxCell>
                <mxCell id="I1IDcSsDDkqj55VAcggX-10" value="Permissões" style="text;html=1;strokeColor=none;fillColor=none;align=center;verticalAlign=middle;whiteSpace=wrap;rounded=0;fontSize=10;fontStyle=1" parent="1" vertex="1">
                    <mxGeometry x="427.5" y="251" width="105" height="20" as="geometry"/>
                </mxCell>
                <mxCell id="Cs9JVhswUvnxnj_cJQUN-1" value="Criar" style="rounded=1;whiteSpace=wrap;html=1;" parent="1" vertex="1">
                    <mxGeometry x="407.25" y="420" width="145.5" height="30" as="geometry"/>
                </mxCell>
                <mxCell id="Cs9JVhswUvnxnj_cJQUN-14" value="" style="rounded=1;whiteSpace=wrap;html=1;arcSize=3;" parent="1" vertex="1">
                    <mxGeometry x="720" y="160" width="400" height="300" as="geometry"/>
                </mxCell>
                <mxCell id="Cs9JVhswUvnxnj_cJQUN-15" value="" style="rounded=0;whiteSpace=wrap;html=1;fontSize=10;" parent="1" vertex="1">
                    <mxGeometry x="720" y="180" width="400" height="280" as="geometry"/>
                </mxCell>
                <mxCell id="Cs9JVhswUvnxnj_cJQUN-16" value="Dashboard" style="rounded=1;whiteSpace=wrap;html=1;fontSize=10;" parent="1" vertex="1">
                    <mxGeometry x="720" y="160" width="85" height="20" as="geometry"/>
                </mxCell>
                <mxCell id="Cs9JVhswUvnxnj_cJQUN-17" value="Cadastro" style="rounded=1;whiteSpace=wrap;html=1;fontSize=10;gradientColor=none;" parent="1" vertex="1">
                    <mxGeometry x="805" y="160" width="85" height="20" as="geometry"/>
                </mxCell>
                <mxCell id="Cs9JVhswUvnxnj_cJQUN-18" value="IAM" style="rounded=1;whiteSpace=wrap;html=1;fontSize=10;gradientColor=default;" parent="1" vertex="1">
                    <mxGeometry x="890" y="160" width="85" height="20" as="geometry"/>
                </mxCell>
                <mxCell id="Cs9JVhswUvnxnj_cJQUN-22" value="Permissões" style="text;html=1;strokeColor=none;fillColor=none;align=center;verticalAlign=middle;whiteSpace=wrap;rounded=0;fontSize=10;fontStyle=1" parent="1" vertex="1">
                    <mxGeometry x="867.5" y="271" width="105" height="20" as="geometry"/>
                </mxCell>
                <mxCell id="Cs9JVhswUvnxnj_cJQUN-25" value="Buscar" style="rounded=1;whiteSpace=wrap;html=1;" parent="1" vertex="1">
                    <mxGeometry x="818.6899999999999" y="420" width="95.25" height="30" as="geometry"/>
                </mxCell>
                <mxCell id="Cs9JVhswUvnxnj_cJQUN-28" value="&amp;lt;permissão&amp;gt;" style="rounded=0;whiteSpace=wrap;html=1;fontSize=10;gradientColor=none;" parent="1" vertex="1">
                    <mxGeometry x="300" y="273.5" width="120" height="25" as="geometry"/>
                </mxCell>
                <mxCell id="Cs9JVhswUvnxnj_cJQUN-29" value="&amp;lt;descrição&amp;gt;" style="rounded=0;whiteSpace=wrap;html=1;fontSize=10;gradientColor=none;" parent="1" vertex="1">
                    <mxGeometry x="420" y="273.5" width="120" height="25" as="geometry"/>
                </mxCell>
                <mxCell id="Cs9JVhswUvnxnj_cJQUN-30" value="" style="rounded=0;whiteSpace=wrap;html=1;fontSize=10;gradientColor=none;" parent="1" vertex="1">
                    <mxGeometry x="540" y="273.5" width="120" height="25" as="geometry"/>
                </mxCell>
                <mxCell id="Cs9JVhswUvnxnj_cJQUN-31" value="" style="whiteSpace=wrap;html=1;aspect=fixed;fontSize=10;gradientColor=none;" parent="1" vertex="1">
                    <mxGeometry x="590" y="276" width="20" height="20" as="geometry"/>
                </mxCell>
                <mxCell id="Cs9JVhswUvnxnj_cJQUN-38" value="&amp;lt;permissão&amp;gt;" style="rounded=0;whiteSpace=wrap;html=1;fontSize=10;gradientColor=none;" parent="1" vertex="1">
                    <mxGeometry x="300" y="298.5" width="120" height="25" as="geometry"/>
                </mxCell>
                <mxCell id="Cs9JVhswUvnxnj_cJQUN-39" value="&lt;span style=&quot;color: rgb(240, 240, 240); font-family: Helvetica; font-size: 10px; font-style: normal; font-variant-ligatures: normal; font-variant-caps: normal; font-weight: 400; letter-spacing: normal; orphans: 2; text-align: center; text-indent: 0px; text-transform: none; widows: 2; word-spacing: 0px; -webkit-text-stroke-width: 0px; background-color: rgb(24, 20, 29); text-decoration-thickness: initial; text-decoration-style: initial; text-decoration-color: initial; float: none; display: inline !important;&quot;&gt;&amp;lt;descrição&amp;gt;&lt;/span&gt;" style="rounded=0;whiteSpace=wrap;html=1;fontSize=10;gradientColor=none;" parent="1" vertex="1">
                    <mxGeometry x="420" y="298.5" width="120" height="25" as="geometry"/>
                </mxCell>
                <mxCell id="Cs9JVhswUvnxnj_cJQUN-40" value="" style="rounded=0;whiteSpace=wrap;html=1;fontSize=10;gradientColor=none;" parent="1" vertex="1">
                    <mxGeometry x="540" y="298.5" width="120" height="25" as="geometry"/>
                </mxCell>
                <mxCell id="Cs9JVhswUvnxnj_cJQUN-41" value="" style="whiteSpace=wrap;html=1;aspect=fixed;fontSize=10;gradientColor=none;" parent="1" vertex="1">
                    <mxGeometry x="590" y="301" width="20" height="20" as="geometry"/>
                </mxCell>
                <mxCell id="Cs9JVhswUvnxnj_cJQUN-42" value="&amp;lt;permissão&amp;gt;" style="rounded=0;whiteSpace=wrap;html=1;fontSize=10;gradientColor=none;" parent="1" vertex="1">
                    <mxGeometry x="300" y="323.5" width="120" height="25" as="geometry"/>
                </mxCell>
                <mxCell id="Cs9JVhswUvnxnj_cJQUN-43" value="&lt;span style=&quot;color: rgb(240, 240, 240); font-family: Helvetica; font-size: 10px; font-style: normal; font-variant-ligatures: normal; font-variant-caps: normal; font-weight: 400; letter-spacing: normal; orphans: 2; text-align: center; text-indent: 0px; text-transform: none; widows: 2; word-spacing: 0px; -webkit-text-stroke-width: 0px; background-color: rgb(24, 20, 29); text-decoration-thickness: initial; text-decoration-style: initial; text-decoration-color: initial; float: none; display: inline !important;&quot;&gt;&amp;lt;descrição&amp;gt;&lt;/span&gt;" style="rounded=0;whiteSpace=wrap;html=1;fontSize=10;gradientColor=none;" parent="1" vertex="1">
                    <mxGeometry x="420" y="323.5" width="120" height="25" as="geometry"/>
                </mxCell>
                <mxCell id="Cs9JVhswUvnxnj_cJQUN-44" value="" style="rounded=0;whiteSpace=wrap;html=1;fontSize=10;gradientColor=none;" parent="1" vertex="1">
                    <mxGeometry x="540" y="323.5" width="120" height="25" as="geometry"/>
                </mxCell>
                <mxCell id="Cs9JVhswUvnxnj_cJQUN-45" value="" style="whiteSpace=wrap;html=1;aspect=fixed;fontSize=10;gradientColor=none;" parent="1" vertex="1">
                    <mxGeometry x="590" y="326" width="20" height="20" as="geometry"/>
                </mxCell>
                <mxCell id="Cs9JVhswUvnxnj_cJQUN-46" value="&lt;span style=&quot;color: rgb(240, 240, 240); font-family: Helvetica; font-size: 10px; font-style: normal; font-variant-ligatures: normal; font-variant-caps: normal; font-weight: 400; letter-spacing: normal; orphans: 2; text-align: center; text-indent: 0px; text-transform: none; widows: 2; word-spacing: 0px; -webkit-text-stroke-width: 0px; background-color: rgb(24, 20, 29); text-decoration-thickness: initial; text-decoration-style: initial; text-decoration-color: initial; float: none; display: inline !important;&quot;&gt;&amp;lt;permissão&amp;gt;&lt;/span&gt;" style="rounded=0;whiteSpace=wrap;html=1;fontSize=10;gradientColor=none;" parent="1" vertex="1">
                    <mxGeometry x="300" y="348.5" width="120" height="25" as="geometry"/>
                </mxCell>
                <mxCell id="Cs9JVhswUvnxnj_cJQUN-47" value="&lt;span style=&quot;color: rgb(240, 240, 240); font-family: Helvetica; font-size: 10px; font-style: normal; font-variant-ligatures: normal; font-variant-caps: normal; font-weight: 400; letter-spacing: normal; orphans: 2; text-align: center; text-indent: 0px; text-transform: none; widows: 2; word-spacing: 0px; -webkit-text-stroke-width: 0px; background-color: rgb(24, 20, 29); text-decoration-thickness: initial; text-decoration-style: initial; text-decoration-color: initial; float: none; display: inline !important;&quot;&gt;&amp;lt;descrição&amp;gt;&lt;/span&gt;" style="rounded=0;whiteSpace=wrap;html=1;fontSize=10;gradientColor=none;" parent="1" vertex="1">
                    <mxGeometry x="420" y="348.5" width="120" height="25" as="geometry"/>
                </mxCell>
                <mxCell id="Cs9JVhswUvnxnj_cJQUN-48" value="" style="rounded=0;whiteSpace=wrap;html=1;fontSize=10;gradientColor=none;" parent="1" vertex="1">
                    <mxGeometry x="540" y="348.5" width="120" height="25" as="geometry"/>
                </mxCell>
                <mxCell id="Cs9JVhswUvnxnj_cJQUN-49" value="" style="whiteSpace=wrap;html=1;aspect=fixed;fontSize=10;gradientColor=none;" parent="1" vertex="1">
                    <mxGeometry x="590" y="351" width="20" height="20" as="geometry"/>
                </mxCell>
                <mxCell id="Cs9JVhswUvnxnj_cJQUN-53" value="" style="whiteSpace=wrap;html=1;aspect=fixed;fontSize=10;gradientColor=none;" parent="1" vertex="1">
                    <mxGeometry x="527.5" y="389" width="20" height="20" as="geometry"/>
                </mxCell>
                <mxCell id="Cs9JVhswUvnxnj_cJQUN-58" value="&amp;lt;permissão&amp;gt;" style="rounded=0;whiteSpace=wrap;html=1;fontSize=10;gradientColor=none;" parent="1" vertex="1">
                    <mxGeometry x="825" y="291" width="120" height="25" as="geometry"/>
                </mxCell>
                <mxCell id="Cs9JVhswUvnxnj_cJQUN-59" value="" style="rounded=0;whiteSpace=wrap;html=1;fontSize=10;gradientColor=none;" parent="1" vertex="1">
                    <mxGeometry x="945" y="291" width="70" height="25" as="geometry"/>
                </mxCell>
                <mxCell id="Cs9JVhswUvnxnj_cJQUN-60" value="" style="whiteSpace=wrap;html=1;aspect=fixed;fontSize=10;gradientColor=none;" parent="1" vertex="1">
                    <mxGeometry x="970" y="293.5" width="20" height="20" as="geometry"/>
                </mxCell>
                <mxCell id="Cs9JVhswUvnxnj_cJQUN-61" value="&amp;lt;permissão&amp;gt;" style="rounded=0;whiteSpace=wrap;html=1;fontSize=10;gradientColor=none;" parent="1" vertex="1">
                    <mxGeometry x="825" y="313.5" width="120" height="25" as="geometry"/>
                </mxCell>
                <mxCell id="Cs9JVhswUvnxnj_cJQUN-62" value="" style="rounded=0;whiteSpace=wrap;html=1;fontSize=10;gradientColor=none;" parent="1" vertex="1">
                    <mxGeometry x="945" y="313.5" width="70" height="25" as="geometry"/>
                </mxCell>
                <mxCell id="Cs9JVhswUvnxnj_cJQUN-63" value="" style="whiteSpace=wrap;html=1;aspect=fixed;fontSize=10;gradientColor=none;" parent="1" vertex="1">
                    <mxGeometry x="970" y="316" width="20" height="20" as="geometry"/>
                </mxCell>
                <mxCell id="Cs9JVhswUvnxnj_cJQUN-64" value="&amp;lt;permissão&amp;gt;" style="rounded=0;whiteSpace=wrap;html=1;fontSize=10;gradientColor=none;" parent="1" vertex="1">
                    <mxGeometry x="825" y="336" width="120" height="25" as="geometry"/>
                </mxCell>
                <mxCell id="Cs9JVhswUvnxnj_cJQUN-65" value="" style="rounded=0;whiteSpace=wrap;html=1;fontSize=10;gradientColor=none;" parent="1" vertex="1">
                    <mxGeometry x="945" y="336" width="70" height="25" as="geometry"/>
                </mxCell>
                <mxCell id="Cs9JVhswUvnxnj_cJQUN-66" value="" style="whiteSpace=wrap;html=1;aspect=fixed;fontSize=10;gradientColor=none;" parent="1" vertex="1">
                    <mxGeometry x="970" y="338.5" width="20" height="20" as="geometry"/>
                </mxCell>
                <mxCell id="Cs9JVhswUvnxnj_cJQUN-67" value="&amp;lt;permissão&amp;gt;" style="rounded=0;whiteSpace=wrap;html=1;fontSize=10;gradientColor=none;" parent="1" vertex="1">
                    <mxGeometry x="825" y="361" width="120" height="25" as="geometry"/>
                </mxCell>
                <mxCell id="Cs9JVhswUvnxnj_cJQUN-68" value="" style="rounded=0;whiteSpace=wrap;html=1;fontSize=10;gradientColor=none;" parent="1" vertex="1">
                    <mxGeometry x="945" y="361" width="70" height="25" as="geometry"/>
                </mxCell>
                <mxCell id="Cs9JVhswUvnxnj_cJQUN-69" value="" style="whiteSpace=wrap;html=1;aspect=fixed;fontSize=10;gradientColor=none;" parent="1" vertex="1">
                    <mxGeometry x="970" y="363.5" width="20" height="20" as="geometry"/>
                </mxCell>
                <mxCell id="uVtFYjVAaXYO2GRLpBHc-3" value="Administrador:" style="text;html=1;strokeColor=none;fillColor=none;align=center;verticalAlign=middle;whiteSpace=wrap;rounded=0;fontSize=10;fontStyle=1" parent="1" vertex="1">
                    <mxGeometry x="407.25" y="389" width="105" height="20" as="geometry"/>
                </mxCell>
                <mxCell id="BrXH_fPj9sxePZ8qXrak-1" value="" style="rounded=1;whiteSpace=wrap;html=1;" parent="1" vertex="1">
                    <mxGeometry x="840" y="215" width="160" height="30" as="geometry"/>
                </mxCell>
                <mxCell id="BrXH_fPj9sxePZ8qXrak-2" value="Usuário" style="text;html=1;strokeColor=none;fillColor=none;align=center;verticalAlign=middle;whiteSpace=wrap;rounded=0;fontSize=10;fontStyle=1" parent="1" vertex="1">
                    <mxGeometry x="867.5" y="195" width="105" height="20" as="geometry"/>
                </mxCell>
                <mxCell id="BrXH_fPj9sxePZ8qXrak-3" value="Atualizar" style="rounded=1;whiteSpace=wrap;html=1;" parent="1" vertex="1">
                    <mxGeometry x="926.0699999999999" y="420" width="95.25" height="30" as="geometry"/>
                </mxCell>
                <mxCell id="rh_vqmj0sXRGmiK9JTZJ-1" value="" style="rounded=1;whiteSpace=wrap;html=1;arcSize=3;" vertex="1" parent="1">
                    <mxGeometry x="1160" y="161" width="400" height="300" as="geometry"/>
                </mxCell>
                <mxCell id="rh_vqmj0sXRGmiK9JTZJ-2" value="" style="rounded=0;whiteSpace=wrap;html=1;fontSize=10;" vertex="1" parent="1">
                    <mxGeometry x="1160" y="181" width="400" height="280" as="geometry"/>
                </mxCell>
                <mxCell id="rh_vqmj0sXRGmiK9JTZJ-3" value="Dashboard" style="rounded=1;whiteSpace=wrap;html=1;fontSize=10;" vertex="1" parent="1">
                    <mxGeometry x="1160" y="161" width="85" height="20" as="geometry"/>
                </mxCell>
                <mxCell id="rh_vqmj0sXRGmiK9JTZJ-4" value="Cadastro" style="rounded=1;whiteSpace=wrap;html=1;fontSize=10;gradientColor=none;" vertex="1" parent="1">
                    <mxGeometry x="1245" y="161" width="85" height="20" as="geometry"/>
                </mxCell>
                <mxCell id="rh_vqmj0sXRGmiK9JTZJ-5" value="IAM" style="rounded=1;whiteSpace=wrap;html=1;fontSize=10;gradientColor=none;" vertex="1" parent="1">
                    <mxGeometry x="1330" y="161" width="85" height="20" as="geometry"/>
                </mxCell>
                <mxCell id="rh_vqmj0sXRGmiK9JTZJ-8" value="&amp;lt;tipo&amp;gt;" style="rounded=0;whiteSpace=wrap;html=1;fontSize=10;gradientColor=none;" vertex="1" parent="1">
                    <mxGeometry x="1325" y="277" width="120" height="25" as="geometry"/>
                </mxCell>
                <mxCell id="rh_vqmj0sXRGmiK9JTZJ-9" value="" style="rounded=0;whiteSpace=wrap;html=1;fontSize=10;gradientColor=none;" vertex="1" parent="1">
                    <mxGeometry x="1445" y="277" width="70" height="25" as="geometry"/>
                </mxCell>
                <mxCell id="rh_vqmj0sXRGmiK9JTZJ-10" value="" style="whiteSpace=wrap;html=1;aspect=fixed;fontSize=10;gradientColor=none;" vertex="1" parent="1">
                    <mxGeometry x="1470" y="279.5" width="20" height="20" as="geometry"/>
                </mxCell>
                <mxCell id="rh_vqmj0sXRGmiK9JTZJ-11" value="&amp;lt;tipo&amp;gt;" style="rounded=0;whiteSpace=wrap;html=1;fontSize=10;gradientColor=none;" vertex="1" parent="1">
                    <mxGeometry x="1325" y="302.5" width="120" height="25" as="geometry"/>
                </mxCell>
                <mxCell id="rh_vqmj0sXRGmiK9JTZJ-12" value="" style="rounded=0;whiteSpace=wrap;html=1;fontSize=10;gradientColor=none;" vertex="1" parent="1">
                    <mxGeometry x="1445" y="302.5" width="70" height="25" as="geometry"/>
                </mxCell>
                <mxCell id="rh_vqmj0sXRGmiK9JTZJ-13" value="" style="whiteSpace=wrap;html=1;aspect=fixed;fontSize=10;gradientColor=none;" vertex="1" parent="1">
                    <mxGeometry x="1470" y="305" width="20" height="20" as="geometry"/>
                </mxCell>
                <mxCell id="rh_vqmj0sXRGmiK9JTZJ-14" value="&amp;lt;tipo&amp;gt;" style="rounded=0;whiteSpace=wrap;html=1;fontSize=10;gradientColor=none;" vertex="1" parent="1">
                    <mxGeometry x="1325" y="325" width="120" height="25" as="geometry"/>
                </mxCell>
                <mxCell id="rh_vqmj0sXRGmiK9JTZJ-15" value="" style="rounded=0;whiteSpace=wrap;html=1;fontSize=10;gradientColor=none;" vertex="1" parent="1">
                    <mxGeometry x="1445" y="325" width="70" height="25" as="geometry"/>
                </mxCell>
                <mxCell id="rh_vqmj0sXRGmiK9JTZJ-16" value="" style="whiteSpace=wrap;html=1;aspect=fixed;fontSize=10;gradientColor=none;" vertex="1" parent="1">
                    <mxGeometry x="1470" y="327.5" width="20" height="20" as="geometry"/>
                </mxCell>
                <mxCell id="rh_vqmj0sXRGmiK9JTZJ-17" value="&amp;lt;tipo&amp;gt;" style="rounded=0;whiteSpace=wrap;html=1;fontSize=10;gradientColor=none;" vertex="1" parent="1">
                    <mxGeometry x="1325" y="350" width="120" height="25" as="geometry"/>
                </mxCell>
                <mxCell id="rh_vqmj0sXRGmiK9JTZJ-18" value="" style="rounded=0;whiteSpace=wrap;html=1;fontSize=10;gradientColor=none;" vertex="1" parent="1">
                    <mxGeometry x="1445" y="350" width="70" height="25" as="geometry"/>
                </mxCell>
                <mxCell id="rh_vqmj0sXRGmiK9JTZJ-19" value="" style="whiteSpace=wrap;html=1;aspect=fixed;fontSize=10;gradientColor=none;" vertex="1" parent="1">
                    <mxGeometry x="1470" y="352.5" width="20" height="20" as="geometry"/>
                </mxCell>
                <mxCell id="rh_vqmj0sXRGmiK9JTZJ-23" value="Usuários" style="rounded=1;whiteSpace=wrap;html=1;fontSize=10;" vertex="1" parent="1">
                    <mxGeometry x="95" y="160" width="85" height="20" as="geometry"/>
                </mxCell>
                <mxCell id="rh_vqmj0sXRGmiK9JTZJ-24" value="Usuários" style="rounded=1;whiteSpace=wrap;html=1;fontSize=10;" vertex="1" parent="1">
                    <mxGeometry x="532.5" y="160" width="85" height="20" as="geometry"/>
                </mxCell>
                <mxCell id="rh_vqmj0sXRGmiK9JTZJ-25" value="Usuários" style="rounded=1;whiteSpace=wrap;html=1;fontSize=10;" vertex="1" parent="1">
                    <mxGeometry x="975" y="160" width="85" height="20" as="geometry"/>
                </mxCell>
                <mxCell id="rh_vqmj0sXRGmiK9JTZJ-26" value="Usuários" style="rounded=1;whiteSpace=wrap;html=1;fontSize=10;gradientColor=default;" vertex="1" parent="1">
                    <mxGeometry x="1415" y="161" width="85" height="20" as="geometry"/>
                </mxCell>
                <mxCell id="T5ngToXm_NJ9aX5CLlzF-3" value="&amp;lt;nome&amp;gt;" style="rounded=0;whiteSpace=wrap;html=1;fontSize=10;gradientColor=none;" vertex="1" parent="1">
                    <mxGeometry x="1205" y="277" width="120" height="25" as="geometry"/>
                </mxCell>
                <mxCell id="T5ngToXm_NJ9aX5CLlzF-4" value="&amp;lt;nome&amp;gt;" style="rounded=0;whiteSpace=wrap;html=1;fontSize=10;gradientColor=none;" vertex="1" parent="1">
                    <mxGeometry x="1205" y="302.5" width="120" height="25" as="geometry"/>
                </mxCell>
                <mxCell id="T5ngToXm_NJ9aX5CLlzF-5" value="&amp;lt;nome&amp;gt;" style="rounded=0;whiteSpace=wrap;html=1;fontSize=10;gradientColor=none;" vertex="1" parent="1">
                    <mxGeometry x="1205" y="325" width="120" height="25" as="geometry"/>
                </mxCell>
                <mxCell id="T5ngToXm_NJ9aX5CLlzF-6" value="&amp;lt;nome&amp;gt;" style="rounded=0;whiteSpace=wrap;html=1;fontSize=10;gradientColor=none;" vertex="1" parent="1">
                    <mxGeometry x="1205" y="350" width="120" height="25" as="geometry"/>
                </mxCell>
                <mxCell id="T5ngToXm_NJ9aX5CLlzF-7" value="Remover" style="rounded=1;whiteSpace=wrap;html=1;" vertex="1" parent="1">
                    <mxGeometry x="1383.6199999999997" y="409" width="95.25" height="30" as="geometry"/>
                </mxCell>
                <mxCell id="T5ngToXm_NJ9aX5CLlzF-8" value="Atualizar" style="rounded=1;whiteSpace=wrap;html=1;" vertex="1" parent="1">
                    <mxGeometry x="1241.12" y="409" width="95.25" height="30" as="geometry"/>
                </mxCell>
            </root>
        </mxGraphModel>
    </diagram>
    <diagram id="53DvnejI3BCROsWpqO3t" name="Tela - Usuário">
        <mxGraphModel dx="2149" dy="1420" grid="1" gridSize="10" guides="1" tooltips="1" connect="1" arrows="1" fold="1" page="0" pageScale="1" pageWidth="850" pageHeight="1100" math="0" shadow="0">
            <root>
                <mxCell id="0"/>
                <mxCell id="1" parent="0"/>
                <mxCell id="pdXobeyOzBN92eVQckE--1" value="" style="rounded=1;whiteSpace=wrap;html=1;arcSize=3;" parent="1" vertex="1">
                    <mxGeometry x="-160" y="160" width="400" height="300" as="geometry"/>
                </mxCell>
                <mxCell id="pdXobeyOzBN92eVQckE--2" value="" style="rounded=0;whiteSpace=wrap;html=1;fontSize=10;" parent="1" vertex="1">
                    <mxGeometry x="-160" y="180" width="400" height="280" as="geometry"/>
                </mxCell>
                <mxCell id="pdXobeyOzBN92eVQckE--3" value="Artefatos: Download" style="rounded=1;whiteSpace=wrap;html=1;fontSize=10;gradientColor=default;" parent="1" vertex="1">
                    <mxGeometry x="-160" y="160" width="110" height="20" as="geometry"/>
                </mxCell>
                <mxCell id="pdXobeyOzBN92eVQckE--4" value="Artefatos: Upload" style="rounded=1;whiteSpace=wrap;html=1;fontSize=10;" parent="1" vertex="1">
                    <mxGeometry x="-50" y="160" width="110" height="20" as="geometry"/>
                </mxCell>
                <mxCell id="MoTIicPBl4J_PiuDqB_o-1" value="" style="rounded=1;whiteSpace=wrap;html=1;" parent="1" vertex="1">
                    <mxGeometry x="-140" y="283.75" width="160" height="30" as="geometry"/>
                </mxCell>
                <mxCell id="MoTIicPBl4J_PiuDqB_o-2" value="Artefato" style="text;html=1;strokeColor=none;fillColor=none;align=center;verticalAlign=middle;whiteSpace=wrap;rounded=0;fontSize=10;fontStyle=1" parent="1" vertex="1">
                    <mxGeometry x="-112.5" y="260" width="105" height="20" as="geometry"/>
                </mxCell>
                <mxCell id="MoTIicPBl4J_PiuDqB_o-3" value="" style="triangle;whiteSpace=wrap;html=1;fontSize=10;gradientColor=none;rotation=90;" parent="1" vertex="1">
                    <mxGeometry x="0.539999999999992" y="295.15999999999997" width="10" height="11.43" as="geometry"/>
                </mxCell>
                <mxCell id="MoTIicPBl4J_PiuDqB_o-4" value="Treinamento" style="rounded=1;whiteSpace=wrap;html=1;fontSize=10;" parent="1" vertex="1">
                    <mxGeometry x="60" y="160" width="110" height="20" as="geometry"/>
                </mxCell>
                <mxCell id="MoTIicPBl4J_PiuDqB_o-5" value="" style="rounded=1;whiteSpace=wrap;html=1;" parent="1" vertex="1">
                    <mxGeometry x="-140" y="223.75" width="160" height="30" as="geometry"/>
                </mxCell>
                <mxCell id="MoTIicPBl4J_PiuDqB_o-6" value="Tipo" style="text;html=1;strokeColor=none;fillColor=none;align=center;verticalAlign=middle;whiteSpace=wrap;rounded=0;fontSize=10;fontStyle=1" parent="1" vertex="1">
                    <mxGeometry x="-112.5" y="200" width="105" height="20" as="geometry"/>
                </mxCell>
                <mxCell id="MoTIicPBl4J_PiuDqB_o-7" value="" style="triangle;whiteSpace=wrap;html=1;fontSize=10;gradientColor=none;rotation=90;" parent="1" vertex="1">
                    <mxGeometry x="0.539999999999992" y="233.03999999999996" width="10" height="11.43" as="geometry"/>
                </mxCell>
                <mxCell id="MoTIicPBl4J_PiuDqB_o-8" value="" style="rounded=1;whiteSpace=wrap;html=1;" parent="1" vertex="1">
                    <mxGeometry x="-140" y="346.63" width="160" height="30" as="geometry"/>
                </mxCell>
                <mxCell id="MoTIicPBl4J_PiuDqB_o-9" value="Salvar em" style="text;html=1;strokeColor=none;fillColor=none;align=center;verticalAlign=middle;whiteSpace=wrap;rounded=0;fontSize=10;fontStyle=1" parent="1" vertex="1">
                    <mxGeometry x="-112.5" y="322.88" width="105" height="20" as="geometry"/>
                </mxCell>
                <mxCell id="MoTIicPBl4J_PiuDqB_o-10" value="Download" style="rounded=1;whiteSpace=wrap;html=1;fontSize=10;gradientColor=none;" parent="1" vertex="1">
                    <mxGeometry x="-20" y="410" width="120" height="30" as="geometry"/>
                </mxCell>
                <mxCell id="MoTIicPBl4J_PiuDqB_o-11" value="" style="rounded=0;whiteSpace=wrap;html=1;fontSize=10;gradientColor=none;" parent="1" vertex="1">
                    <mxGeometry x="60" y="220.88" width="150" height="160" as="geometry"/>
                </mxCell>
                <mxCell id="MoTIicPBl4J_PiuDqB_o-12" value="Informações" style="text;html=1;strokeColor=none;fillColor=none;align=center;verticalAlign=middle;whiteSpace=wrap;rounded=0;fontSize=10;fontStyle=1" parent="1" vertex="1">
                    <mxGeometry x="82.5" y="200" width="105" height="20" as="geometry"/>
                </mxCell>
                <mxCell id="MoTIicPBl4J_PiuDqB_o-13" value="" style="rounded=1;whiteSpace=wrap;html=1;arcSize=3;" parent="1" vertex="1">
                    <mxGeometry x="280" y="160" width="400" height="300" as="geometry"/>
                </mxCell>
                <mxCell id="MoTIicPBl4J_PiuDqB_o-14" value="" style="rounded=0;whiteSpace=wrap;html=1;fontSize=10;" parent="1" vertex="1">
                    <mxGeometry x="280" y="180" width="400" height="280" as="geometry"/>
                </mxCell>
                <mxCell id="MoTIicPBl4J_PiuDqB_o-15" value="Artefatos: Download" style="rounded=1;whiteSpace=wrap;html=1;fontSize=10;gradientColor=none;" parent="1" vertex="1">
                    <mxGeometry x="280" y="160" width="110" height="20" as="geometry"/>
                </mxCell>
                <mxCell id="MoTIicPBl4J_PiuDqB_o-16" value="Artefatos: Upload" style="rounded=1;whiteSpace=wrap;html=1;fontSize=10;gradientColor=default;" parent="1" vertex="1">
                    <mxGeometry x="390" y="160" width="110" height="20" as="geometry"/>
                </mxCell>
                <mxCell id="MoTIicPBl4J_PiuDqB_o-17" value="" style="rounded=1;whiteSpace=wrap;html=1;" parent="1" vertex="1">
                    <mxGeometry x="300" y="283.75" width="160" height="30" as="geometry"/>
                </mxCell>
                <mxCell id="MoTIicPBl4J_PiuDqB_o-18" value="Artefato" style="text;html=1;strokeColor=none;fillColor=none;align=center;verticalAlign=middle;whiteSpace=wrap;rounded=0;fontSize=10;fontStyle=1" parent="1" vertex="1">
                    <mxGeometry x="327.5" y="260" width="105" height="20" as="geometry"/>
                </mxCell>
                <mxCell id="MoTIicPBl4J_PiuDqB_o-20" value="Treinamento" style="rounded=1;whiteSpace=wrap;html=1;fontSize=10;" parent="1" vertex="1">
                    <mxGeometry x="500" y="160" width="110" height="20" as="geometry"/>
                </mxCell>
                <mxCell id="MoTIicPBl4J_PiuDqB_o-21" value="" style="rounded=1;whiteSpace=wrap;html=1;" parent="1" vertex="1">
                    <mxGeometry x="300" y="223.75" width="160" height="30" as="geometry"/>
                </mxCell>
                <mxCell id="MoTIicPBl4J_PiuDqB_o-22" value="Tipo" style="text;html=1;strokeColor=none;fillColor=none;align=center;verticalAlign=middle;whiteSpace=wrap;rounded=0;fontSize=10;fontStyle=1" parent="1" vertex="1">
                    <mxGeometry x="327.5" y="200" width="105" height="20" as="geometry"/>
                </mxCell>
                <mxCell id="MoTIicPBl4J_PiuDqB_o-23" value="" style="triangle;whiteSpace=wrap;html=1;fontSize=10;gradientColor=none;rotation=90;" parent="1" vertex="1">
                    <mxGeometry x="440.53999999999996" y="233.03999999999996" width="10" height="11.43" as="geometry"/>
                </mxCell>
                <mxCell id="MoTIicPBl4J_PiuDqB_o-24" value="" style="rounded=1;whiteSpace=wrap;html=1;" parent="1" vertex="1">
                    <mxGeometry x="300" y="346.63" width="160" height="30" as="geometry"/>
                </mxCell>
                <mxCell id="MoTIicPBl4J_PiuDqB_o-25" value="Arquivo (.zip)" style="text;html=1;strokeColor=none;fillColor=none;align=center;verticalAlign=middle;whiteSpace=wrap;rounded=0;fontSize=10;fontStyle=1" parent="1" vertex="1">
                    <mxGeometry x="327.5" y="322.88" width="105" height="20" as="geometry"/>
                </mxCell>
                <mxCell id="MoTIicPBl4J_PiuDqB_o-26" value="Upload" style="rounded=1;whiteSpace=wrap;html=1;fontSize=10;gradientColor=none;" parent="1" vertex="1">
                    <mxGeometry x="420" y="410" width="120" height="30" as="geometry"/>
                </mxCell>
                <mxCell id="MoTIicPBl4J_PiuDqB_o-27" value="" style="rounded=0;whiteSpace=wrap;html=1;fontSize=10;gradientColor=none;" parent="1" vertex="1">
                    <mxGeometry x="500" y="220.88" width="150" height="160" as="geometry"/>
                </mxCell>
                <mxCell id="MoTIicPBl4J_PiuDqB_o-28" value="Informações" style="text;html=1;strokeColor=none;fillColor=none;align=center;verticalAlign=middle;whiteSpace=wrap;rounded=0;fontSize=10;fontStyle=1" parent="1" vertex="1">
                    <mxGeometry x="522.5" y="200" width="105" height="20" as="geometry"/>
                </mxCell>
                <mxCell id="MoTIicPBl4J_PiuDqB_o-29" value="" style="rounded=1;whiteSpace=wrap;html=1;arcSize=3;" parent="1" vertex="1">
                    <mxGeometry x="720" y="160" width="400" height="300" as="geometry"/>
                </mxCell>
                <mxCell id="MoTIicPBl4J_PiuDqB_o-30" value="" style="rounded=0;whiteSpace=wrap;html=1;fontSize=10;" parent="1" vertex="1">
                    <mxGeometry x="720" y="180" width="400" height="280" as="geometry"/>
                </mxCell>
                <mxCell id="MoTIicPBl4J_PiuDqB_o-31" value="Artefatos: Download" style="rounded=1;whiteSpace=wrap;html=1;fontSize=10;gradientColor=none;" parent="1" vertex="1">
                    <mxGeometry x="720" y="160" width="110" height="20" as="geometry"/>
                </mxCell>
                <mxCell id="MoTIicPBl4J_PiuDqB_o-32" value="Artefatos: Upload" style="rounded=1;whiteSpace=wrap;html=1;fontSize=10;gradientColor=none;" parent="1" vertex="1">
                    <mxGeometry x="830" y="160" width="110" height="20" as="geometry"/>
                </mxCell>
                <mxCell id="MoTIicPBl4J_PiuDqB_o-35" value="Treinamento" style="rounded=1;whiteSpace=wrap;html=1;fontSize=10;gradientColor=default;" parent="1" vertex="1">
                    <mxGeometry x="940" y="160" width="110" height="20" as="geometry"/>
                </mxCell>
                <mxCell id="MoTIicPBl4J_PiuDqB_o-37" value="Configuração (YAML)" style="text;html=1;strokeColor=none;fillColor=none;align=center;verticalAlign=middle;whiteSpace=wrap;rounded=0;fontSize=10;fontStyle=1" parent="1" vertex="1">
                    <mxGeometry x="767.5" y="200" width="105" height="20" as="geometry"/>
                </mxCell>
                <mxCell id="MoTIicPBl4J_PiuDqB_o-41" value="Enviar" style="rounded=1;whiteSpace=wrap;html=1;fontSize=10;gradientColor=none;" parent="1" vertex="1">
                    <mxGeometry x="860" y="410" width="120" height="30" as="geometry"/>
                </mxCell>
                <mxCell id="MoTIicPBl4J_PiuDqB_o-44" value="models:&lt;br style=&quot;font-size: 8px;&quot;&gt;&lt;span style=&quot;white-space: pre; font-size: 8px;&quot;&gt;&#9;&lt;/span&gt;model_name:&lt;br style=&quot;font-size: 8px;&quot;&gt;&lt;span style=&quot;white-space: pre; font-size: 8px;&quot;&gt;&#9;&lt;/span&gt;&lt;span style=&quot;white-space: pre; font-size: 8px;&quot;&gt;&#9;&lt;/span&gt;parmeters: &lt;br style=&quot;font-size: 8px;&quot;&gt;&lt;span style=&quot;white-space: pre; font-size: 8px;&quot;&gt;&#9;&lt;/span&gt;&lt;span style=&quot;white-space: pre; font-size: 8px;&quot;&gt;&#9;&lt;/span&gt;&lt;span style=&quot;white-space: pre; font-size: 8px;&quot;&gt;&#9;&lt;/span&gt;- key=value&lt;br style=&quot;font-size: 8px;&quot;&gt;dataset:&lt;br style=&quot;font-size: 8px;&quot;&gt;&lt;span style=&quot;white-space: pre; font-size: 8px;&quot;&gt;&#9;&lt;/span&gt;feature_columns:&amp;nbsp;&lt;br style=&quot;font-size: 8px;&quot;&gt;&lt;span style=&quot;white-space: pre; font-size: 8px;&quot;&gt;&#9;&lt;/span&gt;&lt;span style=&quot;white-space: pre; font-size: 8px;&quot;&gt;&#9;&lt;/span&gt;- column&lt;br style=&quot;font-size: 8px;&quot;&gt;&lt;span style=&quot;white-space: pre; font-size: 8px;&quot;&gt;&#9;&lt;/span&gt;target_column: label&lt;br style=&quot;font-size: 8px;&quot;&gt;&lt;span style=&quot;white-space: pre; font-size: 8px;&quot;&gt;&#9;&lt;/span&gt;train:&lt;br style=&quot;font-size: 8px;&quot;&gt;&lt;span style=&quot;white-space: pre; font-size: 8px;&quot;&gt;&#9;&lt;/span&gt;&lt;span style=&quot;white-space: pre; font-size: 8px;&quot;&gt;&#9;&lt;/span&gt;start: 0&lt;br style=&quot;font-size: 8px;&quot;&gt;&lt;span style=&quot;white-space: pre; font-size: 8px;&quot;&gt;&#9;&lt;/span&gt;&lt;span style=&quot;white-space: pre; font-size: 8px;&quot;&gt;&#9;&lt;/span&gt;end : 10&lt;br style=&quot;font-size: 8px;&quot;&gt;&lt;span style=&quot;white-space: pre; font-size: 8px;&quot;&gt;&#9;&lt;/span&gt;test:&lt;br style=&quot;font-size: 8px;&quot;&gt;&lt;span style=&quot;white-space: pre; font-size: 8px;&quot;&gt;&#9;&lt;/span&gt;&lt;span style=&quot;white-space: pre; font-size: 8px;&quot;&gt;&#9;&lt;/span&gt;start: 0&lt;br style=&quot;font-size: 8px;&quot;&gt;&lt;span style=&quot;white-space: pre; font-size: 8px;&quot;&gt;&#9;&lt;/span&gt;&lt;span style=&quot;white-space: pre; font-size: 8px;&quot;&gt;&#9;&lt;/span&gt;end:10" style="rounded=0;html=1;fontSize=8;gradientColor=none;verticalAlign=top;align=left;fontFamily=Helvetica;" parent="1" vertex="1">
                    <mxGeometry x="745" y="223.75" width="150" height="160" as="geometry"/>
                </mxCell>
                <mxCell id="MoTIicPBl4J_PiuDqB_o-45" value="" style="rounded=1;whiteSpace=wrap;html=1;" parent="1" vertex="1">
                    <mxGeometry x="940" y="223.75" width="160" height="30" as="geometry"/>
                </mxCell>
                <mxCell id="MoTIicPBl4J_PiuDqB_o-46" value="Tipo" style="text;html=1;strokeColor=none;fillColor=none;align=center;verticalAlign=middle;whiteSpace=wrap;rounded=0;fontSize=10;fontStyle=1" parent="1" vertex="1">
                    <mxGeometry x="967.5" y="200" width="105" height="20" as="geometry"/>
                </mxCell>
                <mxCell id="MoTIicPBl4J_PiuDqB_o-47" value="" style="triangle;whiteSpace=wrap;html=1;fontSize=10;gradientColor=none;rotation=90;" parent="1" vertex="1">
                    <mxGeometry x="1077.5" y="233.03999999999996" width="10" height="11.43" as="geometry"/>
                </mxCell>
                <mxCell id="MoTIicPBl4J_PiuDqB_o-48" value="" style="rounded=1;whiteSpace=wrap;html=1;" parent="1" vertex="1">
                    <mxGeometry x="940" y="288.88" width="160" height="30" as="geometry"/>
                </mxCell>
                <mxCell id="MoTIicPBl4J_PiuDqB_o-49" value="Dataset" style="text;html=1;strokeColor=none;fillColor=none;align=center;verticalAlign=middle;whiteSpace=wrap;rounded=0;fontSize=10;fontStyle=1" parent="1" vertex="1">
                    <mxGeometry x="967.5" y="265.13" width="105" height="20" as="geometry"/>
                </mxCell>
                <mxCell id="MoTIicPBl4J_PiuDqB_o-50" value="" style="triangle;whiteSpace=wrap;html=1;fontSize=10;gradientColor=none;rotation=90;" parent="1" vertex="1">
                    <mxGeometry x="1077.5" y="297.9" width="10" height="11.43" as="geometry"/>
                </mxCell>
                <mxCell id="MoTIicPBl4J_PiuDqB_o-51" value="" style="rounded=1;whiteSpace=wrap;html=1;" parent="1" vertex="1">
                    <mxGeometry x="940" y="353.75" width="160" height="30" as="geometry"/>
                </mxCell>
                <mxCell id="MoTIicPBl4J_PiuDqB_o-52" value="Salvar em" style="text;html=1;strokeColor=none;fillColor=none;align=center;verticalAlign=middle;whiteSpace=wrap;rounded=0;fontSize=10;fontStyle=1" parent="1" vertex="1">
                    <mxGeometry x="967.5" y="330" width="105" height="20" as="geometry"/>
                </mxCell>
                <mxCell id="8jb8-iLKZOAjjswX5Mxy-1" value="" style="rounded=1;whiteSpace=wrap;html=1;arcSize=3;" parent="1" vertex="1">
                    <mxGeometry x="1160" y="160" width="400" height="300" as="geometry"/>
                </mxCell>
                <mxCell id="8jb8-iLKZOAjjswX5Mxy-2" value="" style="rounded=0;whiteSpace=wrap;html=1;fontSize=10;" parent="1" vertex="1">
                    <mxGeometry x="1160" y="180" width="400" height="280" as="geometry"/>
                </mxCell>
                <mxCell id="8jb8-iLKZOAjjswX5Mxy-3" value="Artefatos: Download" style="rounded=1;whiteSpace=wrap;html=1;fontSize=10;gradientColor=none;" parent="1" vertex="1">
                    <mxGeometry x="1160" y="160" width="110" height="20" as="geometry"/>
                </mxCell>
                <mxCell id="8jb8-iLKZOAjjswX5Mxy-4" value="Artefatos: Upload" style="rounded=1;whiteSpace=wrap;html=1;fontSize=10;gradientColor=none;" parent="1" vertex="1">
                    <mxGeometry x="1270" y="160" width="110" height="20" as="geometry"/>
                </mxCell>
                <mxCell id="8jb8-iLKZOAjjswX5Mxy-5" value="Treinamento" style="rounded=1;whiteSpace=wrap;html=1;fontSize=10;gradientColor=default;" parent="1" vertex="1">
                    <mxGeometry x="1380" y="160" width="110" height="20" as="geometry"/>
                </mxCell>
                <mxCell id="XTzGzgGfdyMOsq04RUw6-1" value="&amp;lt;id&amp;gt;" style="rounded=0;whiteSpace=wrap;html=1;fontSize=10;gradientColor=none;" parent="1" vertex="1">
                    <mxGeometry x="1240" y="260" width="120" height="25" as="geometry"/>
                </mxCell>
                <mxCell id="XTzGzgGfdyMOsq04RUw6-2" value="&amp;lt;status&amp;gt;" style="rounded=0;whiteSpace=wrap;html=1;fontSize=10;gradientColor=none;" parent="1" vertex="1">
                    <mxGeometry x="1360" y="260" width="120" height="25" as="geometry"/>
                </mxCell>
                <mxCell id="XTzGzgGfdyMOsq04RUw6-4" value="&amp;lt;id&amp;gt;" style="rounded=0;whiteSpace=wrap;html=1;fontSize=10;gradientColor=none;" parent="1" vertex="1">
                    <mxGeometry x="1240" y="285" width="120" height="25" as="geometry"/>
                </mxCell>
                <mxCell id="XTzGzgGfdyMOsq04RUw6-5" value="&amp;lt;status&amp;gt;" style="rounded=0;whiteSpace=wrap;html=1;fontSize=10;gradientColor=none;" parent="1" vertex="1">
                    <mxGeometry x="1360" y="285" width="120" height="25" as="geometry"/>
                </mxCell>
                <mxCell id="XTzGzgGfdyMOsq04RUw6-7" value="&amp;lt;id&amp;gt;" style="rounded=0;whiteSpace=wrap;html=1;fontSize=10;gradientColor=none;" parent="1" vertex="1">
                    <mxGeometry x="1240" y="307.26" width="120" height="25" as="geometry"/>
                </mxCell>
                <mxCell id="XTzGzgGfdyMOsq04RUw6-8" value="&amp;lt;status&amp;gt;" style="rounded=0;whiteSpace=wrap;html=1;fontSize=10;gradientColor=none;" parent="1" vertex="1">
                    <mxGeometry x="1360" y="307.26" width="120" height="25" as="geometry"/>
                </mxCell>
                <mxCell id="XTzGzgGfdyMOsq04RUw6-9" value="&amp;lt;id&amp;gt;" style="rounded=0;whiteSpace=wrap;html=1;fontSize=10;gradientColor=none;" parent="1" vertex="1">
                    <mxGeometry x="1240" y="332.26" width="120" height="25" as="geometry"/>
                </mxCell>
                <mxCell id="XTzGzgGfdyMOsq04RUw6-10" value="&amp;lt;status&amp;gt;" style="rounded=0;whiteSpace=wrap;html=1;fontSize=10;gradientColor=none;" parent="1" vertex="1">
                    <mxGeometry x="1360" y="332.26" width="120" height="25" as="geometry"/>
                </mxCell>
            </root>
        </mxGraphModel>
    </diagram>
</mxfile>